<?xml version="1.0" encoding="UTF-8"?>
<svg xmlns="http://www.w3.org/2000/svg" viewBox="3 3 3348 1012" fill="none">
<path d="M 1670.96 118.61 C 1686.31 132.64 1690.75 154.14 1692.00 174.00 C 1692.21 179.19 1692.29 184.37 1692.31 189.56 C 1692.31 189.92 1692.31 189.92 1692.32 191.73 C 1692.35 208.12 1690.10 223.94 1686.46 239.91 C 1685.46 244.44 1684.64 249.00 1683.78 253.55 C 1683.10 256.57 1682.17 259.15 1681.00 262.00 C 1680.44 264.52 1680.00 267.05 1679.56 269.60 C 1679.00 272.00 1679.00 272.00 1678.02 273.90 C 1677.01 275.98 1676.55 277.71 1676.12 279.96 C 1674.86 285.97 1672.96 291.74 1671.06 297.56 C 1670.72 298.65 1670.37 299.73 1670.01 300.85 C 1668.15 306.63 1666.17 312.33 1664.00 318.00 C 1663.16 320.35 1662.33 322.71 1661.50 325.06 C 1659.82 329.79 1658.01 334.40 1656.00 339.00 C 1655.23 341.06 1654.46 343.12 1653.69 345.19 C 1651.59 350.68 1649.16 355.88 1646.47 361.10 C 1645.07 363.87 1643.77 366.67 1642.50 369.50 C 1639.84 375.42 1636.93 381.21 1634.00 387.00 C 1632.66 389.67 1631.33 392.33 1630.00 395.00 C 1629.33 396.33 1628.67 397.67 1628.00 399.00 C 1627.67 399.66 1627.34 400.32 1627.00 401.00 C 1624.00 407.00 1624.00 407.00 1623.00 409.01 C 1622.34 410.32 1621.69 411.63 1621.03 412.95 C 1618.45 418.15 1615.77 423.30 1613.06 428.44 C 1612.85 428.83 1612.85 428.83 1611.80 430.85 C 1608.94 436.27 1605.99 441.65 1603.00 447.00 C 1602.20 448.45 1601.39 449.90 1600.59 451.35 C 1597.60 456.72 1594.59 462.08 1591.56 467.44 C 1591.02 468.41 1590.47 469.38 1589.90 470.38 C 1581.60 485.10 1572.55 499.26 1563.15 513.29 C 1561.43 515.85 1559.71 518.43 1558.00 521.00 C 1557.70 521.44 1557.70 521.44 1556.19 523.69 C 1553.71 527.44 1551.29 531.24 1548.88 535.04 C 1547.60 537.06 1546.31 539.07 1545.03 541.09 C 1544.40 542.07 1543.77 543.05 1543.12 544.06 C 1542.84 544.51 1542.84 544.51 1541.38 546.79 C 1540.00 549.00 1540.00 549.00 1539.00 551.00 C 1538.34 551.00 1537.68 551.00 1537.00 551.00 C 1536.73 551.73 1536.47 552.46 1536.20 553.21 C 1535.00 555.99 1533.64 558.17 1531.88 560.62 C 1531.25 561.50 1530.62 562.38 1529.97 563.28 C 1529.32 564.18 1528.67 565.08 1528.00 566.00 C 1527.70 566.42 1527.70 566.42 1526.18 568.53 C 1520.24 576.77 1514.13 584.89 1508.00 593.00 C 1507.57 593.57 1507.14 594.14 1506.69 594.73 C 1500.64 602.72 1494.37 610.52 1488.03 618.28 C 1485.62 621.23 1483.24 624.20 1480.88 627.19 C 1478.32 630.41 1475.68 633.55 1472.99 636.66 C 1471.09 638.86 1469.23 641.10 1467.38 643.34 C 1466.47 644.43 1465.56 645.52 1464.63 646.59 C 1459.15 653.02 1455.88 658.70 1456.20 667.42 C 1456.99 677.12 1459.58 686.61 1462.00 696.00 C 1462.31 697.27 1462.62 698.55 1462.94 699.86 C 1465.78 711.12 1469.47 722.15 1473.08 733.19 C 1473.65 734.94 1474.22 736.69 1474.77 738.44 C 1476.50 743.81 1478.63 748.89 1481.00 754.00 C 1481.34 754.75 1481.68 755.49 1482.03 756.26 C 1491.91 777.81 1503.78 796.81 1519.00 815.00 C 1519.70 815.84 1520.39 816.68 1521.11 817.55 C 1527.03 824.54 1533.97 830.10 1541.31 835.52 C 1541.59 835.76 1541.59 835.76 1543.00 837.00 C 1543.00 837.66 1543.00 838.32 1543.00 839.00 C 1543.72 839.26 1544.44 839.53 1545.19 839.80 C 1548.05 841.02 1550.42 842.47 1553.00 844.19 C 1567.54 853.55 1582.49 859.12 1599.00 864.00 C 1599.88 864.28 1600.76 864.56 1601.66 864.84 C 1608.78 866.99 1615.90 867.82 1623.28 868.57 C 1627.00 869.00 1627.00 869.00 1628.91 869.51 C 1658.21 876.34 1695.71 865.83 1724.09 857.55 C 1726.67 856.81 1729.27 856.12 1731.88 855.44 C 1747.04 851.31 1747.04 851.31 1752.00 848.00 C 1752.97 847.75 1753.94 847.50 1754.94 847.25 C 1759.65 846.00 1763.82 843.67 1768.14 841.45 C 1771.38 839.80 1774.64 838.39 1778.00 837.00 C 1785.83 833.70 1793.38 829.85 1800.96 826.03 C 1802.90 825.05 1804.84 824.09 1806.79 823.14 C 1812.88 820.14 1818.80 817.03 1824.57 813.46 C 1827.19 811.88 1829.86 810.44 1832.56 809.00 C 1836.83 806.70 1840.83 804.17 1844.82 801.43 C 1846.98 800.01 1849.17 798.78 1851.44 797.56 C 1855.65 795.28 1859.49 792.61 1863.39 789.82 C 1866.09 787.94 1868.84 786.18 1871.62 784.44 C 1875.56 781.96 1879.30 779.36 1882.98 776.52 C 1885.24 774.82 1887.55 773.22 1889.88 771.62 C 1894.31 768.55 1898.51 765.24 1902.68 761.80 C 1905.00 760.00 1905.00 760.00 1907.34 758.62 C 1910.89 756.46 1914.03 753.87 1917.25 751.25 C 1918.59 750.17 1919.93 749.09 1921.27 748.00 C 1921.92 747.48 1922.56 746.97 1923.22 746.43 C 1927.55 742.95 1931.95 739.56 1936.37 736.20 C 1937.15 735.60 1937.94 735.00 1938.75 734.38 C 1939.45 733.85 1940.14 733.32 1940.86 732.77 C 1943.41 730.66 1945.67 728.35 1948.00 726.00 C 1949.76 724.36 1951.53 722.74 1953.31 721.12 C 1954.27 720.25 1955.24 719.38 1956.23 718.48 C 1958.53 716.42 1960.85 714.39 1963.19 712.38 C 1970.21 706.22 1976.18 699.76 1981.68 692.22 C 1982.74 690.78 1983.87 689.38 1985.00 688.00 C 1985.66 688.00 1986.32 688.00 1987.00 688.00 C 1987.25 687.44 1987.49 686.87 1987.75 686.29 C 1989.22 683.60 1990.98 681.63 1993.06 679.38 C 1996.27 675.89 1999.43 672.37 2002.56 668.81 C 2006.44 664.50 2010.56 660.71 2015.00 657.00 C 2015.65 656.42 2016.31 655.84 2016.98 655.24 C 2017.61 654.69 2018.23 654.13 2018.88 653.56 C 2019.43 653.07 2019.98 652.58 2020.55 652.07 C 2022.00 651.00 2022.00 651.00 2024.00 651.00 C 2024.00 650.34 2024.00 649.68 2024.00 649.00 C 2026.12 647.51 2028.21 646.18 2030.44 644.88 C 2031.11 644.48 2031.78 644.08 2032.47 643.68 C 2055.86 630.11 2079.86 623.83 2106.88 623.81 C 2108.17 623.80 2109.47 623.79 2110.81 623.78 C 2118.45 623.76 2125.54 624.33 2133.00 626.00 C 2134.14 626.22 2135.28 626.45 2136.46 626.68 C 2155.34 630.80 2177.01 639.13 2189.00 655.00 C 2189.39 655.39 2189.39 655.39 2191.38 657.38 C 2198.57 664.57 2203.85 672.25 2209.00 681.00 C 2209.52 681.82 2210.04 682.63 2210.58 683.47 C 2212.27 686.48 2213.37 689.49 2214.50 692.75 C 2214.90 693.90 2215.30 695.05 2215.72 696.23 C 2215.93 696.86 2215.93 696.86 2217.00 700.00 C 2217.12 700.34 2217.12 700.34 2217.73 702.04 C 2219.48 707.10 2220.78 712.03 2221.60 717.32 C 2221.73 718.12 2221.85 718.92 2221.98 719.74 C 2223.87 732.91 2224.04 746.31 2224.51 759.60 C 2224.64 763.19 2224.80 766.78 2224.96 770.37 C 2224.99 771.46 2225.02 772.56 2225.05 773.69 C 2225.42 781.25 2225.42 781.25 2228.41 785.15 C 2232.91 788.36 2237.71 789.55 2243.00 791.00 C 2244.19 791.33 2245.38 791.66 2246.61 792.00 C 2290.28 803.38 2337.39 804.04 2382.12 800.69 C 2382.93 800.63 2383.74 800.57 2384.57 800.51 C 2394.63 799.75 2404.16 798.31 2414.00 796.00 C 2416.64 795.47 2419.29 794.98 2421.94 794.50 C 2423.27 794.25 2424.61 794.00 2425.95 793.75 C 2426.61 793.63 2427.28 793.51 2427.96 793.38 C 2428.63 793.25 2429.31 793.13 2430.00 793.00 C 2430.69 792.87 2431.39 792.74 2432.10 792.61 C 2434.15 792.22 2436.20 791.83 2438.25 791.44 C 2439.45 791.21 2440.65 790.98 2441.89 790.75 C 2444.60 790.10 2446.56 789.28 2449.00 788.00 C 2450.30 787.69 2451.62 787.42 2452.94 787.19 C 2458.10 786.11 2462.84 784.23 2467.73 782.29 C 2470.68 781.13 2473.64 780.02 2476.62 778.94 C 2477.51 778.62 2478.40 778.30 2479.31 777.96 C 2481.14 777.31 2482.98 776.65 2484.81 776.00 C 2490.67 773.91 2496.35 771.59 2502.00 769.00 C 2503.50 768.33 2505.00 767.66 2506.50 767.00 C 2507.25 766.66 2508.00 766.33 2508.78 765.98 C 2510.18 765.36 2511.59 764.75 2513.00 764.14 C 2541.16 751.96 2568.75 736.22 2591.00 715.00 C 2591.71 714.34 2592.42 713.69 2593.15 713.01 C 2599.50 706.96 2604.68 699.95 2610.00 693.00 C 2610.89 691.84 2611.79 690.68 2612.68 689.52 C 2618.86 681.51 2618.86 681.51 2621.76 677.68 C 2625.38 672.93 2629.19 668.36 2633.06 663.81 C 2633.56 663.23 2634.05 662.65 2634.56 662.05 C 2637.88 658.18 2641.28 654.48 2645.00 651.00 C 2645.66 651.00 2646.32 651.00 2647.00 651.00 C 2647.00 650.34 2647.00 649.68 2647.00 649.00 C 2648.39 648.02 2649.79 647.04 2651.23 646.14 C 2653.01 644.99 2654.68 643.76 2656.38 642.50 C 2659.44 640.30 2662.58 638.58 2665.98 636.96 C 2667.28 636.34 2668.57 635.69 2669.83 635.00 C 2678.53 630.31 2688.14 627.92 2697.86 626.39 C 2700.00 626.00 2700.00 626.00 2702.00 625.00 C 2704.61 624.76 2707.20 624.58 2709.81 624.44 C 2710.20 624.42 2710.20 624.42 2712.14 624.31 C 2718.76 623.97 2725.36 623.82 2732.00 624.00 C 2733.17 624.03 2734.34 624.06 2735.54 624.09 C 2750.66 624.75 2766.99 627.98 2780.00 636.00 C 2781.06 636.60 2782.12 637.19 2783.21 637.80 C 2805.88 650.70 2820.44 667.04 2832.25 690.19 C 2832.59 690.85 2832.93 691.52 2833.29 692.20 C 2835.37 696.39 2836.78 700.46 2838.00 705.00 C 2838.33 705.80 2838.66 706.59 2839.00 707.41 C 2840.39 711.01 2841.22 714.68 2842.06 718.44 C 2842.24 719.16 2842.41 719.87 2842.59 720.62 C 2844.86 730.65 2845.03 740.89 2845.14 751.14 C 2845.15 751.53 2845.15 751.53 2845.17 753.50 C 2845.25 760.01 2845.25 760.01 2845.25 763.16 C 2845.25 765.55 2845.29 767.94 2845.33 770.32 C 2845.32 771.05 2845.31 771.78 2845.31 772.53 C 2845.36 774.58 2845.36 774.58 2846.00 778.00 C 2848.29 779.85 2848.29 779.85 2851.00 781.00 C 2851.66 781.37 2852.33 781.73 2853.01 782.11 C 2855.25 783.11 2857.39 783.66 2859.78 784.18 C 2860.71 784.39 2861.63 784.59 2862.59 784.81 C 2863.55 785.01 2864.51 785.22 2865.50 785.44 C 2867.39 785.85 2869.27 786.27 2871.16 786.68 C 2872.12 786.89 2873.08 787.11 2874.07 787.32 C 2877.01 788.00 2879.93 788.76 2882.86 789.53 C 2889.43 791.19 2896.04 792.20 2902.75 793.12 C 2903.90 793.29 2905.04 793.46 2906.23 793.64 C 2923.25 796.04 2940.14 796.16 2957.31 796.13 C 2961.06 796.13 2964.81 796.13 2968.56 796.14 C 2985.83 796.14 3002.22 795.71 3019.19 792.12 C 3020.45 791.87 3021.71 791.61 3023.01 791.35 C 3043.06 787.22 3043.06 787.22 3051.00 784.00 C 3054.65 783.04 3058.30 782.16 3061.97 781.31 C 3067.39 780.02 3072.07 778.64 3077.00 776.00 C 3079.33 775.33 3081.67 774.66 3084.00 774.00 C 3090.67 771.62 3096.94 768.59 3103.25 765.38 C 3106.46 763.77 3109.69 762.37 3113.00 761.00 C 3115.24 760.02 3117.47 759.02 3119.70 758.02 C 3121.16 757.38 3122.62 756.73 3124.08 756.10 C 3135.69 751.06 3147.18 745.35 3157.88 738.56 C 3160.94 736.62 3164.06 734.85 3167.25 733.12 C 3176.02 728.38 3184.54 723.48 3192.65 717.67 C 3194.82 716.13 3197.02 714.65 3199.25 713.19 C 3208.58 707.01 3217.60 700.34 3226.60 693.69 C 3232.27 689.70 3236.03 687.79 3243.00 689.00 C 3246.89 690.46 3249.90 692.32 3252.20 695.83 C 3254.37 700.82 3254.18 704.75 3253.00 710.00 C 3250.97 714.80 3248.40 717.98 3244.69 721.62 C 3243.76 722.55 3242.84 723.47 3241.89 724.41 C 3239.05 726.95 3236.18 728.92 3233.00 731.00 C 3231.04 732.48 3229.12 734.00 3227.19 735.52 C 3220.86 740.49 3214.48 745.18 3207.56 749.31 C 3206.93 749.69 3206.30 750.07 3205.65 750.46 C 3201.28 753.00 3201.28 753.00 3199.00 753.00 C 3199.00 753.66 3199.00 754.32 3199.00 755.00 C 3196.73 756.52 3196.73 756.52 3193.62 758.25 C 3192.53 758.87 3191.43 759.50 3190.29 760.14 C 3189.21 760.75 3188.12 761.37 3187.00 762.00 C 3185.31 763.01 3183.62 764.04 3181.94 765.06 C 3176.71 768.21 3171.38 771.12 3166.00 774.00 C 3165.70 774.16 3165.70 774.16 3164.18 774.98 C 3151.43 781.83 3151.43 781.83 3144.96 785.00 C 3142.42 786.30 3139.93 787.68 3137.44 789.06 C 3133.37 791.30 3129.30 793.23 3125.00 795.00 C 3122.31 796.23 3119.62 797.47 3116.94 798.72 C 3110.63 801.47 3104.12 803.68 3097.62 805.94 C 3093.08 807.53 3088.57 809.13 3084.12 811.00 C 3073.12 815.50 3061.49 818.91 3049.86 821.36 C 3047.80 821.82 3045.75 822.36 3043.73 822.95 C 3039.39 824.17 3035.04 825.11 3030.62 826.00 C 3029.76 826.17 3028.89 826.35 3028.00 826.53 C 3021.46 827.81 3014.92 828.73 3008.29 829.40 C 3005.36 829.70 3002.81 830.06 3000.00 831.00 C 2991.43 831.99 2982.84 832.15 2974.23 832.13 C 2973.06 832.13 2971.89 832.13 2970.69 832.14 C 2968.24 832.14 2965.79 832.13 2963.34 832.13 C 2959.64 832.13 2955.94 832.13 2952.23 832.14 C 2937.24 832.14 2922.46 832.06 2907.63 829.60 C 2904.02 829.00 2900.40 828.47 2896.78 827.94 C 2881.22 825.67 2865.76 822.86 2850.48 819.14 C 2849.36 818.87 2848.23 818.60 2847.06 818.31 C 2846.56 818.19 2846.56 818.19 2844.04 817.55 C 2840.43 816.90 2837.65 816.46 2834.00 817.00 C 2832.03 819.34 2830.81 821.15 2829.44 823.81 C 2829.05 824.50 2828.67 825.18 2828.28 825.89 C 2826.61 828.89 2825.03 831.94 2823.45 834.99 C 2816.44 848.34 2804.93 865.76 2791.00 872.44 C 2790.67 872.53 2790.67 872.53 2789.00 873.00 C 2789.00 873.66 2789.00 874.32 2789.00 875.00 C 2776.43 885.06 2760.48 891.98 2745.00 896.00 C 2743.89 896.30 2742.79 896.60 2741.64 896.91 C 2721.66 901.51 2699.68 900.50 2680.00 895.00 C 2678.99 894.72 2677.98 894.45 2676.93 894.16 C 2663.42 889.79 2650.94 881.90 2640.00 873.00 C 2639.37 872.54 2638.74 872.07 2638.10 871.59 C 2631.59 866.57 2626.90 859.52 2622.00 853.00 C 2621.35 852.15 2620.69 851.30 2620.02 850.43 C 2615.04 843.71 2611.48 836.33 2607.88 828.81 C 2607.07 827.15 2606.23 825.49 2605.39 823.84 C 2601.88 816.69 2599.66 809.48 2598.49 801.61 C 2598.00 799.00 2598.00 799.00 2597.02 796.26 C 2595.96 792.88 2595.50 789.80 2595.15 786.29 C 2595.02 785.05 2594.89 783.80 2594.76 782.52 C 2594.63 781.23 2594.51 779.95 2594.38 778.62 C 2594.24 777.32 2594.11 776.01 2593.97 774.66 C 2593.64 771.44 2593.32 768.22 2593.00 765.00 C 2588.20 764.86 2585.99 765.30 2582.00 768.00 C 2579.00 769.53 2575.97 771.02 2572.94 772.50 C 2570.21 773.89 2567.62 775.41 2565.00 777.00 C 2562.88 778.18 2560.76 779.35 2558.62 780.50 C 2557.54 781.09 2556.46 781.68 2555.35 782.28 C 2551.96 784.02 2548.51 785.50 2545.00 787.00 C 2542.36 788.28 2539.74 789.61 2537.12 790.94 C 2532.12 793.46 2527.12 795.93 2521.98 798.15 C 2520.65 798.72 2519.33 799.31 2518.02 799.91 C 2508.58 804.27 2498.71 807.67 2488.94 811.19 C 2486.03 812.24 2483.22 813.34 2480.38 814.56 C 2471.53 818.33 2462.23 820.72 2452.92 823.01 C 2452.21 823.18 2451.50 823.36 2450.77 823.54 C 2449.37 823.88 2447.97 824.22 2446.57 824.55 C 2442.90 825.45 2439.50 826.59 2436.00 828.00 C 2434.41 828.36 2432.80 828.67 2431.19 828.94 C 2426.65 829.71 2422.14 830.56 2417.62 831.44 C 2404.26 833.95 2390.92 836.05 2377.32 836.58 C 2376.33 836.62 2375.34 836.66 2374.33 836.70 C 2364.23 837.08 2354.13 837.15 2344.02 837.13 C 2341.00 837.13 2337.98 837.13 2334.96 837.14 C 2315.83 837.15 2296.79 836.73 2277.81 834.12 C 2276.54 833.96 2275.26 833.80 2273.95 833.64 C 2267.02 832.72 2260.32 831.49 2253.57 829.67 C 2251.14 829.04 2248.72 828.55 2246.25 828.12 C 2240.20 826.97 2234.39 825.01 2228.54 823.12 C 2223.45 821.51 2219.39 820.53 2214.00 821.00 C 2209.14 824.08 2206.63 828.28 2203.69 833.06 C 2202.72 834.60 2201.75 836.13 2200.77 837.67 C 2200.30 838.41 2199.83 839.16 2199.34 839.92 C 2197.00 843.54 2194.47 847.00 2191.89 850.45 C 2190.58 852.23 2189.28 854.02 2188.01 855.83 C 2183.80 861.81 2179.39 867.05 2174.00 872.00 C 2173.66 872.31 2173.66 872.31 2171.93 873.91 C 2168.14 877.31 2164.30 880.26 2160.00 883.00 C 2158.94 883.81 2157.87 884.62 2156.81 885.44 C 2152.25 888.73 2147.15 890.79 2142.00 893.00 C 2140.89 893.54 2139.77 894.07 2138.62 894.62 C 2120.71 901.42 2100.69 901.48 2083.00 894.00 C 2072.18 888.97 2063.62 881.52 2058.86 870.50 C 2053.71 855.51 2054.64 839.51 2061.00 825.00 C 2064.44 818.22 2068.74 812.35 2075.00 808.00 C 2075.95 807.32 2076.90 806.64 2077.88 805.94 C 2086.02 800.89 2093.52 798.76 2103.00 797.00 C 2103.00 795.68 2103.00 794.36 2103.00 793.00 C 2091.87 787.98 2082.34 787.93 2070.59 791.54 C 2064.32 794.08 2059.26 797.84 2054.00 802.00 C 2053.22 802.58 2052.45 803.17 2051.64 803.77 C 2041.53 811.94 2034.06 823.82 2026.75 834.46 C 2024.47 837.77 2022.14 841.04 2019.81 844.31 C 2019.40 844.90 2018.98 845.49 2018.55 846.09 C 2013.61 853.02 2013.61 853.02 2011.00 856.00 C 2010.34 856.00 2009.68 856.00 2009.00 856.00 C 2008.77 856.58 2008.55 857.15 2008.31 857.75 C 2006.63 860.63 2004.69 862.04 2002.00 864.00 C 2001.01 864.72 2000.02 865.44 1999.00 866.19 C 1993.67 869.41 1988.11 869.54 1982.00 869.00 C 1973.82 866.77 1966.92 860.17 1962.12 853.31 C 1956.56 843.01 1955.36 831.64 1954.99 820.14 C 1954.93 818.78 1954.87 817.41 1954.81 816.04 C 1954.66 812.50 1954.52 808.96 1954.39 805.41 C 1954.18 799.70 1953.94 793.99 1953.70 788.28 C 1953.61 786.29 1953.54 784.31 1953.47 782.32 C 1953.42 781.12 1953.37 779.93 1953.33 778.70 C 1953.29 777.64 1953.25 776.59 1953.21 775.50 C 1953.00 773.00 1953.00 773.00 1952.00 771.00 C 1948.43 771.59 1946.72 772.90 1944.12 775.38 C 1940.12 779.05 1936.00 782.50 1931.75 785.88 C 1931.16 786.35 1930.57 786.83 1929.96 787.32 C 1926.78 789.83 1923.86 791.74 1920.00 793.00 C 1920.00 793.66 1920.00 794.32 1920.00 795.00 C 1917.91 796.52 1917.91 796.52 1915.06 798.25 C 1911.37 800.53 1907.72 802.83 1904.12 805.25 C 1901.13 807.26 1898.10 809.16 1895.00 811.00 C 1893.62 811.92 1892.23 812.84 1890.86 813.77 C 1887.53 815.97 1884.16 818.08 1880.79 820.21 C 1878.33 821.79 1875.91 823.41 1873.50 825.06 C 1870.41 827.14 1867.27 828.98 1863.99 830.73 C 1856.73 834.66 1849.63 838.86 1842.52 843.05 C 1841.51 843.65 1840.49 844.24 1839.45 844.86 C 1838.55 845.39 1837.64 845.92 1836.71 846.47 C 1833.85 848.08 1830.94 849.55 1828.00 851.00 C 1825.18 852.46 1822.37 853.95 1819.56 855.44 C 1818.84 855.82 1818.11 856.20 1817.37 856.60 C 1813.97 858.39 1810.60 860.22 1807.28 862.16 C 1804.54 863.70 1801.93 864.88 1799.00 866.00 C 1797.64 866.70 1796.29 867.40 1794.94 868.12 C 1787.31 871.99 1779.28 874.94 1771.33 878.07 C 1768.31 879.28 1765.31 880.54 1762.31 881.81 C 1754.85 884.94 1747.32 887.25 1739.48 889.25 C 1737.00 890.00 1737.00 890.00 1735.14 890.99 C 1732.84 892.07 1730.83 892.53 1728.34 892.98 C 1724.99 893.61 1721.68 894.30 1718.38 895.15 C 1708.30 897.73 1698.24 899.73 1687.94 901.25 C 1686.83 901.41 1685.73 901.58 1684.59 901.74 C 1672.39 903.47 1660.34 904.19 1648.02 904.19 C 1645.77 904.19 1643.51 904.21 1641.26 904.22 C 1631.34 904.26 1621.82 903.41 1612.00 902.00 C 1609.36 901.68 1606.71 901.37 1604.06 901.06 C 1599.13 900.40 1594.68 899.46 1590.02 897.71 C 1587.94 896.98 1585.92 896.54 1583.75 896.12 C 1577.57 894.82 1571.84 892.35 1566.00 890.00 C 1564.66 889.48 1563.32 888.96 1561.97 888.45 C 1560.63 887.92 1559.28 887.40 1557.94 886.88 C 1557.32 886.64 1557.32 886.64 1554.21 885.43 C 1551.41 884.18 1549.37 882.92 1547.00 881.00 C 1546.15 880.59 1545.31 880.17 1544.44 879.75 C 1531.46 873.14 1518.65 863.93 1508.00 854.00 C 1508.00 853.34 1508.00 852.68 1508.00 852.00 C 1506.68 851.34 1505.36 850.68 1504.00 850.00 C 1504.00 849.34 1504.00 848.68 1504.00 848.00 C 1502.68 847.34 1501.36 846.68 1500.00 846.00 C 1500.00 845.34 1500.00 844.68 1500.00 844.00 C 1499.01 843.67 1498.02 843.34 1497.00 843.00 C 1480.87 827.35 1468.29 805.81 1458.00 786.00 C 1456.92 784.04 1455.84 782.08 1454.75 780.12 C 1452.59 776.16 1450.69 772.20 1449.00 768.00 C 1448.64 767.18 1448.29 766.35 1447.92 765.50 C 1442.89 753.76 1438.81 741.66 1434.86 729.52 C 1434.29 727.86 1433.68 726.22 1433.02 724.60 C 1431.81 721.51 1430.90 718.38 1430.00 715.19 C 1429.65 713.96 1429.30 712.73 1428.95 711.46 C 1428.21 708.77 1427.52 706.09 1426.88 703.38 C 1426.00 700.00 1426.00 700.00 1424.88 697.75 C 1424.00 696.00 1424.00 696.00 1424.00 692.00 C 1419.42 692.52 1416.90 694.30 1413.31 697.12 C 1409.58 700.02 1405.83 702.87 1401.94 705.56 C 1395.25 710.20 1388.69 715.01 1382.14 719.85 C 1381.48 720.34 1380.81 720.83 1380.13 721.33 C 1378.82 722.30 1377.52 723.26 1376.21 724.23 C 1372.90 726.68 1369.56 728.91 1366.00 731.00 C 1364.97 731.76 1363.94 732.53 1362.88 733.31 C 1359.05 736.09 1354.96 738.26 1350.79 740.48 C 1348.29 741.84 1345.90 743.29 1343.50 744.81 C 1337.78 748.31 1331.70 751.06 1325.60 753.84 C 1324.81 754.21 1324.01 754.57 1323.20 754.95 C 1322.48 755.27 1321.77 755.60 1321.04 755.93 C 1318.83 757.09 1316.99 758.50 1315.00 760.00 C 1313.37 760.73 1311.74 761.46 1310.09 762.13 C 1307.71 763.12 1305.39 764.22 1303.06 765.31 C 1297.63 767.80 1292.09 769.90 1286.48 771.94 C 1283.86 772.90 1281.30 773.85 1278.81 775.11 C 1276.06 776.46 1273.20 776.86 1270.22 777.44 C 1267.92 778.02 1266.11 778.94 1264.00 780.00 C 1262.53 780.38 1261.05 780.71 1259.56 781.00 C 1257.06 781.52 1254.88 782.05 1252.50 783.00 C 1249.51 784.20 1246.53 784.81 1243.38 785.44 C 1241.00 786.00 1241.00 786.00 1238.26 786.95 C 1191.38 802.12 1135.93 801.15 1087.38 797.12 C 1086.32 797.04 1085.27 796.95 1084.19 796.86 C 1081.17 796.61 1078.16 796.34 1075.15 796.07 C 1074.26 795.99 1073.36 795.92 1072.44 795.84 C 1067.54 795.37 1062.84 794.60 1058.05 793.46 C 1055.23 792.83 1052.39 792.47 1049.52 792.11 C 1041.87 791.06 1034.39 789.45 1026.87 787.71 C 1024.64 787.19 1022.40 786.69 1020.16 786.19 C 1011.48 784.21 1003.00 781.87 994.53 779.14 C 991.67 778.21 988.80 777.34 985.91 776.52 C 970.42 772.08 955.12 766.75 940.44 760.10 C 937.51 758.78 934.57 757.49 931.64 756.20 C 929.32 755.17 927.00 754.15 924.69 753.12 C 923.54 752.62 922.39 752.12 921.21 751.60 C 914.59 748.67 908.08 745.60 901.63 742.29 C 899.00 741.00 899.00 741.00 896.28 739.95 C 894.00 739.00 894.00 739.00 892.00 737.00 C 888.88 736.88 888.88 736.88 886.00 737.00 C 885.14 740.04 884.78 742.93 884.57 746.08 C 884.50 747.07 884.43 748.05 884.35 749.07 C 884.32 749.60 884.32 749.60 884.12 752.25 C 883.36 762.02 882.19 771.44 880.00 781.00 C 879.91 781.40 879.91 781.40 879.46 783.42 C 877.12 793.69 874.49 803.43 870.00 813.00 C 869.31 814.56 868.62 816.12 867.94 817.69 C 867.61 818.41 867.29 819.13 866.95 819.88 C 866.33 821.27 865.71 822.66 865.11 824.06 C 860.57 834.53 855.65 844.69 849.00 854.00 C 848.43 854.82 847.87 855.64 847.28 856.49 C 845.54 859.01 843.77 861.50 842.00 864.00 C 841.55 864.64 841.11 865.29 840.64 865.95 C 824.38 888.66 799.67 907.41 772.31 914.12 C 771.61 914.30 770.92 914.47 770.20 914.65 C 759.89 917.08 749.56 917.26 739.00 917.00 C 737.97 916.98 736.95 916.97 735.89 916.95 C 723.01 916.39 710.11 912.53 699.00 906.00 C 698.15 905.52 697.29 905.04 696.41 904.55 C 690.67 901.15 685.72 897.18 680.81 892.69 C 680.24 892.16 679.66 891.63 679.06 891.09 C 677.66 889.77 676.33 888.39 675.00 887.00 C 675.00 886.34 675.00 885.68 675.00 885.00 C 674.34 885.00 673.68 885.00 673.00 885.00 C 657.04 866.37 649.10 845.68 643.53 822.17 C 643.14 820.57 642.72 818.97 642.29 817.38 C 640.15 809.30 638.87 801.23 637.88 792.94 C 637.79 792.24 637.70 791.54 637.61 790.82 C 636.03 777.78 635.46 764.78 635.33 751.65 C 635.24 744.23 634.89 737.21 633.00 730.00 C 626.79 732.29 621.25 734.93 615.62 738.43 C 610.90 741.25 605.94 743.58 601.00 746.00 C 600.54 746.24 600.54 746.24 598.20 747.43 C 585.43 753.96 572.35 759.64 558.88 764.56 C 554.95 766.00 551.07 767.55 547.19 769.12 C 541.17 771.55 535.12 773.85 529.00 776.00 C 528.33 776.24 527.65 776.48 526.96 776.73 C 515.99 780.55 504.64 783.75 493.17 785.61 C 491.00 786.00 491.00 786.00 488.06 787.00 C 484.19 788.26 480.32 788.83 476.29 789.44 C 473.78 789.87 471.34 790.37 468.86 790.94 C 405.00 805.33 329.51 801.36 266.00 787.00 C 265.56 786.90 265.56 786.90 263.35 786.41 C 252.46 783.95 241.68 781.23 231.00 778.00 C 230.11 777.73 229.23 777.47 228.32 777.19 C 201.67 769.18 201.67 769.18 194.38 766.19 C 193.96 766.02 193.96 766.02 191.87 765.17 C 190.92 764.78 189.97 764.40 189.00 764.00 C 186.50 763.00 184.00 762.00 181.50 761.00 C 174.73 758.29 174.73 758.29 171.45 756.97 C 167.56 755.41 163.66 753.87 159.74 752.38 C 152.38 749.57 145.14 746.78 138.16 743.12 C 135.93 741.96 133.67 740.94 131.38 739.94 C 124.90 737.09 118.79 734.10 113.00 730.00 C 112.66 729.77 112.66 729.77 110.96 728.59 C 103.68 723.41 103.68 723.41 102.00 719.00 C 101.34 712.21 102.53 707.26 106.75 701.69 C 110.94 698.54 114.77 697.94 119.94 698.19 C 124.20 698.89 128.04 700.31 132.00 702.00 C 132.63 702.27 133.26 702.53 133.91 702.80 C 139.11 705.07 144.24 707.52 149.38 709.94 C 152.25 711.29 155.12 712.65 158.00 714.00 C 159.02 714.48 160.04 714.96 161.09 715.45 C 166.94 718.16 172.87 720.54 178.90 722.82 C 181.51 723.81 184.10 724.83 186.69 725.88 C 191.47 727.80 196.26 729.68 201.06 731.56 C 201.43 731.71 201.43 731.71 203.32 732.45 C 207.82 734.21 212.34 735.82 216.93 737.32 C 218.67 737.89 220.39 738.49 222.11 739.11 C 231.03 742.24 240.12 744.74 249.25 747.19 C 249.89 747.36 250.54 747.54 251.20 747.72 C 258.32 749.63 265.38 751.34 272.65 752.56 C 275.00 753.00 275.00 753.00 278.50 754.00 C 283.30 755.37 288.14 756.18 293.06 757.00 C 294.11 757.18 295.17 757.35 296.25 757.53 C 305.79 759.06 315.33 759.97 324.96 760.71 C 327.18 760.92 329.41 761.19 331.62 761.48 C 346.29 763.44 360.98 763.44 375.75 763.44 C 376.44 763.44 377.13 763.44 377.83 763.44 C 412.28 763.47 446.39 760.93 480.00 753.00 C 481.28 752.72 482.56 752.45 483.88 752.16 C 491.69 750.45 499.34 748.28 507.00 746.00 C 507.56 745.83 507.56 745.83 510.39 745.00 C 523.00 741.19 535.18 736.54 547.19 731.12 C 550.70 729.54 554.25 728.08 557.82 726.63 C 573.13 720.42 587.67 713.26 602.03 705.11 C 604.67 703.62 607.33 702.19 610.00 700.75 C 615.09 697.98 620.05 695.01 625.00 692.00 C 625.87 691.48 626.74 690.97 627.63 690.44 C 633.84 686.67 638.33 682.29 640.16 675.07 C 640.48 673.61 640.78 672.15 641.06 670.69 C 641.14 670.29 641.14 670.29 641.56 668.30 C 642.06 665.87 642.53 663.44 643.00 661.00 C 643.07 660.64 643.07 660.64 643.42 658.83 C 644.98 650.56 646.28 642.26 647.50 633.94 C 648.66 626.07 650.00 618.26 651.53 610.45 C 652.11 607.45 652.67 604.44 653.23 601.44 C 653.67 599.08 654.12 596.73 654.56 594.38 C 654.77 593.25 654.98 592.12 655.20 590.96 C 656.18 585.82 657.27 580.95 659.00 576.00 C 659.37 574.01 659.71 572.01 660.00 570.00 C 660.66 565.79 661.63 562.03 663.00 558.00 C 663.53 555.23 664.00 552.46 664.44 549.68 C 665.00 547.00 665.00 547.00 666.00 544.54 C 667.13 541.68 667.57 539.03 668.00 536.00 C 668.57 532.01 669.49 528.72 671.00 525.00 C 671.38 523.18 671.71 521.34 672.00 519.50 C 672.60 515.71 673.55 512.54 675.00 509.00 C 675.51 507.15 675.99 505.30 676.44 503.44 C 676.69 502.39 676.95 501.35 677.21 500.27 C 677.47 499.19 677.73 498.11 678.00 497.00 C 678.52 494.85 679.04 492.71 679.56 490.56 C 679.68 490.09 679.68 490.09 680.25 487.69 C 681.00 485.00 681.00 485.00 681.96 482.71 C 683.00 480.00 683.00 480.00 683.82 476.13 C 685.13 469.92 687.23 463.95 689.26 457.94 C 689.94 455.94 690.61 453.93 691.28 451.93 C 693.03 446.71 694.78 441.50 696.73 436.35 C 697.73 433.72 698.58 431.15 699.31 428.44 C 700.81 423.30 702.78 418.38 704.84 413.44 C 706.10 410.39 707.17 407.41 708.06 404.23 C 709.00 401.00 709.00 401.00 711.00 398.00 C 711.33 396.85 711.66 395.69 712.00 394.50 C 713.00 391.00 713.00 391.00 715.00 388.00 C 715.50 386.66 715.95 385.30 716.38 383.94 C 717.72 379.74 719.30 375.68 720.97 371.60 C 722.02 368.94 722.99 366.26 723.94 363.56 C 725.61 358.92 727.57 354.48 729.65 350.01 C 731.19 346.57 732.57 343.07 733.94 339.56 C 736.22 333.73 738.83 328.15 741.69 322.57 C 743.29 319.43 744.65 316.25 746.00 313.00 C 751.18 300.73 757.48 288.93 763.62 277.12 C 764.07 276.27 764.51 275.42 764.97 274.53 C 767.69 269.32 770.61 264.27 773.67 259.25 C 775.27 256.55 776.66 253.78 778.00 250.94 C 780.19 246.47 782.61 242.42 785.44 238.34 C 787.23 235.66 788.83 232.91 790.44 230.12 C 793.79 224.31 797.34 218.63 801.00 213.00 C 801.47 212.28 801.94 211.55 802.42 210.80 C 807.07 203.72 812.05 196.87 817.00 190.00 C 817.69 189.04 818.39 188.07 819.11 187.08 C 821.06 184.38 823.03 181.69 825.00 179.00 C 825.72 178.01 826.44 177.02 827.18 176.00 C 831.49 170.15 835.97 164.63 840.90 159.29 C 842.73 157.29 844.50 155.26 846.25 153.19 C 849.54 149.41 853.03 145.86 856.56 142.31 C 856.83 142.04 856.83 142.04 858.21 140.66 C 867.90 131.00 867.90 131.00 871.00 131.00 C 871.00 130.34 871.00 129.68 871.00 129.00 C 872.97 127.59 874.95 126.29 877.00 125.00 C 878.40 124.07 879.79 123.13 881.19 122.19 C 881.96 121.68 882.74 121.16 883.54 120.64 C 885.20 119.53 886.85 118.41 888.50 117.27 C 895.94 112.26 903.65 109.12 912.00 106.00 C 912.79 105.64 913.57 105.27 914.38 104.89 C 921.67 102.40 929.76 102.82 937.38 102.81 C 937.86 102.81 937.86 102.81 940.30 102.78 C 950.27 102.76 959.34 103.86 968.00 109.00 C 968.66 109.37 969.31 109.74 969.99 110.12 C 983.00 117.81 991.70 129.43 996.00 144.00 C 1003.46 174.97 1000.87 210.33 990.50 240.38 C 988.98 244.86 987.87 249.41 986.75 254.01 C 984.17 264.28 980.43 274.00 976.47 283.80 C 975.04 287.37 973.63 290.95 972.27 294.55 C 969.27 302.42 966.16 310.05 962.27 317.54 C 960.68 320.62 959.36 323.81 958.00 327.00 C 956.78 329.47 955.54 331.92 954.28 334.38 C 953.32 336.35 952.42 338.36 951.55 340.38 C 947.62 349.53 942.93 358.35 938.00 367.00 C 936.86 369.01 935.73 371.02 934.59 373.03 C 933.80 374.44 933.01 375.84 932.21 377.24 C 930.58 380.13 928.99 383.02 927.51 385.99 C 925.28 390.45 922.78 394.75 920.32 399.08 C 918.09 403.00 916.01 406.96 914.00 411.00 C 908.94 420.17 903.53 429.11 898.00 438.00 C 896.65 440.21 895.29 442.42 893.94 444.62 C 886.24 457.12 878.28 469.41 869.82 481.40 C 867.82 484.25 865.85 487.13 863.88 490.00 C 855.78 501.72 847.43 513.25 838.69 524.49 C 833.48 531.23 828.50 538.14 823.47 545.01 C 822.98 545.67 822.50 546.32 822.00 547.00 C 821.48 547.74 820.97 548.49 820.44 549.26 C 819.96 549.83 819.49 550.41 819.00 551.00 C 818.34 551.00 817.68 551.00 817.00 551.00 C 816.90 551.34 816.90 551.34 816.38 553.09 C 814.54 556.97 811.92 559.57 808.94 562.62 C 804.07 567.74 799.47 572.96 795.05 578.48 C 792.43 581.70 789.67 584.80 786.89 587.89 C 785.10 589.89 783.33 591.91 781.56 593.94 C 778.15 597.85 774.67 601.71 771.18 605.56 C 769.28 607.69 767.42 609.84 765.56 612.00 C 761.29 616.91 756.63 621.43 752.00 626.00 C 751.18 626.82 750.35 627.65 749.50 628.50 C 747.85 630.15 746.20 631.79 744.54 633.43 C 740.71 637.22 736.94 640.97 733.50 645.12 C 732.67 646.07 731.85 647.02 731.00 648.00 C 730.34 648.00 729.68 648.00 729.00 648.00 C 728.74 648.58 728.49 649.16 728.23 649.76 C 725.27 655.15 719.94 659.24 715.31 663.19 C 710.74 667.10 706.57 671.41 702.39 675.73 C 700.96 677.19 699.49 678.60 698.00 680.00 C 697.34 680.00 696.68 680.00 696.00 680.00 C 695.74 680.60 695.48 681.19 695.22 681.80 C 693.89 684.19 692.61 685.41 690.50 687.12 C 687.10 690.01 683.86 693.00 680.69 696.12 C 680.28 696.53 680.28 696.53 678.20 698.57 C 673.01 704.30 672.49 708.55 672.31 716.06 C 672.28 717.09 672.25 718.12 672.22 719.19 C 672.12 722.79 672.05 726.39 672.00 730.00 C 671.99 730.69 671.98 731.37 671.97 732.08 C 670.43 831.69 670.43 831.69 700.78 863.94 C 705.10 868.32 709.74 871.83 715.00 875.00 C 715.61 875.40 716.21 875.79 716.84 876.20 C 731.41 884.75 751.24 883.14 766.86 879.20 C 771.99 877.78 776.46 875.78 781.00 873.00 C 781.86 872.51 782.73 872.02 783.62 871.51 C 793.57 865.60 801.64 857.90 809.00 849.00 C 809.85 848.17 810.69 847.34 811.57 846.48 C 815.78 842.18 818.78 837.06 822.00 832.00 C 822.52 831.21 823.03 830.41 823.57 829.59 C 832.15 815.93 838.63 800.48 843.00 785.00 C 843.09 784.68 843.09 784.68 843.55 783.05 C 849.95 759.98 848.12 735.72 848.00 712.00 C 847.38 711.71 846.76 711.41 846.12 711.11 C 843.60 709.79 842.03 708.19 840.06 706.12 C 837.77 703.76 835.59 701.68 833.00 699.62 C 832.34 699.09 831.68 698.55 831.00 698.00 C 831.00 697.34 831.00 696.68 831.00 696.00 C 830.41 695.73 829.82 695.46 829.21 695.19 C 821.70 691.15 815.74 682.47 812.00 675.00 C 811.41 669.25 811.84 666.06 815.52 661.54 C 819.90 657.00 824.82 654.75 831.00 654.00 C 841.53 654.00 849.76 659.02 857.20 666.09 C 859.53 668.44 861.83 670.81 864.12 673.19 C 881.77 691.03 901.80 703.40 924.41 714.27 C 927.98 715.99 931.49 717.80 935.00 719.62 C 941.29 722.78 947.70 725.27 954.30 727.66 C 957.38 728.77 960.41 729.95 963.44 731.19 C 966.45 732.41 969.47 733.51 972.56 734.50 C 976.39 735.74 980.01 737.26 983.66 738.94 C 989.54 741.61 995.20 743.77 1001.44 745.44 C 1002.22 745.65 1003.00 745.86 1003.80 746.08 C 1009.67 747.67 1015.56 749.17 1021.46 750.62 C 1025.06 751.50 1028.63 752.46 1032.19 753.50 C 1041.03 755.89 1049.96 757.56 1059.00 759.00 C 1060.15 759.19 1061.31 759.38 1062.50 759.57 C 1085.62 763.12 1108.78 763.40 1132.11 763.43 C 1134.54 763.44 1136.96 763.45 1139.38 763.46 C 1156.07 763.51 1172.43 763.36 1188.91 760.35 C 1192.44 759.76 1196.00 759.42 1199.56 759.06 C 1206.00 758.34 1212.33 757.26 1218.69 756.00 C 1219.53 755.83 1220.36 755.67 1221.23 755.50 C 1225.61 754.59 1229.76 753.46 1234.00 752.00 C 1235.60 751.66 1237.20 751.34 1238.81 751.06 C 1245.00 749.87 1250.72 747.98 1256.50 745.50 C 1261.39 743.41 1266.41 741.82 1271.47 740.21 C 1272.26 739.96 1273.06 739.70 1273.88 739.44 C 1274.23 739.32 1274.23 739.32 1276.05 738.75 C 1278.00 738.00 1278.00 738.00 1281.00 736.00 C 1283.00 735.33 1285.00 734.67 1287.00 734.00 C 1290.04 732.75 1293.02 731.37 1296.00 730.00 C 1296.63 729.71 1297.26 729.43 1297.91 729.13 C 1305.84 725.51 1313.63 721.94 1320.92 717.13 C 1323.27 715.85 1325.37 715.40 1328.00 715.00 C 1328.00 714.34 1328.00 713.68 1328.00 713.00 C 1328.38 712.82 1328.38 712.82 1330.27 711.93 C 1336.47 708.95 1342.11 705.72 1347.67 701.68 C 1349.91 700.07 1352.17 698.54 1354.50 697.06 C 1355.13 696.66 1355.76 696.26 1356.41 695.85 C 1358.00 695.00 1358.00 695.00 1360.00 695.00 C 1360.00 694.34 1360.00 693.68 1360.00 693.00 C 1361.96 691.60 1363.97 690.28 1366.00 689.00 C 1373.74 683.95 1380.88 678.31 1388.00 672.43 C 1390.65 670.29 1393.33 668.21 1396.05 666.16 C 1409.50 656.00 1409.50 656.00 1412.00 651.00 C 1412.09 649.36 1412.11 647.72 1412.11 646.08 C 1412.11 645.55 1412.11 645.55 1412.10 642.92 C 1412.10 641.77 1412.09 640.62 1412.08 639.44 C 1412.08 638.83 1412.08 638.83 1412.07 635.78 C 1412.07 633.14 1412.06 630.51 1412.04 627.88 C 1412.03 623.69 1412.02 619.50 1412.01 615.30 C 1411.98 603.38 1411.95 591.46 1411.90 579.54 C 1411.88 572.96 1411.86 566.38 1411.85 559.80 C 1411.85 556.33 1411.84 552.86 1411.82 549.39 C 1411.74 532.76 1412.24 516.34 1413.75 499.78 C 1414.14 495.43 1414.46 491.07 1414.78 486.72 C 1414.96 484.41 1415.14 482.09 1415.32 479.78 C 1415.44 478.23 1415.56 476.68 1415.68 475.13 C 1416.83 459.82 1416.83 459.82 1418.52 452.26 C 1419.41 448.07 1419.89 443.81 1420.44 439.56 C 1422.60 423.33 1425.20 407.26 1428.54 391.22 C 1428.94 389.29 1429.33 387.34 1429.71 385.40 C 1431.57 376.20 1434.08 367.20 1436.58 358.16 C 1437.68 354.21 1438.71 350.24 1439.69 346.25 C 1440.95 341.11 1442.43 336.06 1444.00 331.00 C 1444.32 329.93 1444.64 328.87 1444.97 327.77 C 1447.87 318.21 1447.87 318.21 1449.62 313.69 C 1451.00 310.00 1451.00 310.00 1451.88 306.25 C 1452.96 301.61 1454.90 297.38 1456.78 293.01 C 1457.86 290.35 1458.69 287.77 1459.44 285.00 C 1460.87 279.90 1463.22 275.43 1465.66 270.74 C 1467.00 268.00 1467.00 268.00 1468.00 264.50 C 1469.29 259.97 1471.41 256.04 1473.55 251.85 C 1475.19 248.63 1476.58 245.33 1478.00 242.00 C 1479.25 239.46 1480.53 236.94 1481.81 234.41 C 1483.33 231.33 1484.65 228.17 1486.00 225.00 C 1487.27 222.30 1488.63 219.65 1490.00 217.00 C 1490.25 216.52 1490.25 216.52 1491.50 214.09 C 1495.57 206.34 1500.06 198.99 1504.89 191.69 C 1505.96 190.07 1507.01 188.43 1508.07 186.80 C 1512.37 180.22 1517.01 174.08 1522.00 168.00 C 1523.27 166.38 1524.54 164.75 1525.81 163.12 C 1537.33 148.76 1550.84 133.61 1566.00 123.00 C 1566.66 123.00 1567.32 123.00 1568.00 123.00 C 1568.00 122.34 1568.00 121.68 1568.00 121.00 C 1570.57 119.59 1573.15 118.19 1575.73 116.79 C 1577.91 115.60 1580.08 114.40 1582.24 113.18 C 1611.16 97.15 1644.87 97.19 1670.96 118.61 Z M 952.76 139.52 C 956.10 141.73 957.81 143.61 960.00 147.00 C 960.37 147.53 960.73 148.05 961.11 148.60 C 968.81 161.30 966.28 180.53 965.19 194.56 C 965.12 195.52 965.05 196.48 964.98 197.47 C 964.47 203.36 963.41 208.80 961.72 214.48 C 960.98 217.07 960.44 219.66 959.94 222.31 C 959.23 226.01 958.21 229.43 957.00 233.00 C 956.70 234.37 956.41 235.75 956.12 237.12 C 952.49 253.81 945.22 270.18 938.38 285.78 C 936.49 290.18 934.83 294.66 933.18 299.16 C 932.01 301.98 930.57 304.39 929.00 307.00 C 927.99 309.33 926.99 311.66 926.00 314.00 C 924.81 316.50 923.56 318.97 922.31 321.44 C 921.60 322.85 920.89 324.27 920.18 325.68 C 919.81 326.40 919.45 327.12 919.08 327.85 C 917.38 331.23 915.69 334.62 914.00 338.00 C 913.34 339.32 912.68 340.64 912.02 341.96 C 911.69 342.62 911.36 343.28 911.02 343.96 C 908.01 349.97 905.01 355.99 902.00 362.00 C 901.49 363.04 900.98 364.08 900.46 365.15 C 898.65 368.69 896.59 372.05 894.50 375.44 C 893.00 378.00 893.00 378.00 891.70 380.65 C 889.28 385.42 886.54 389.97 883.81 394.56 C 883.23 395.54 882.65 396.52 882.05 397.53 C 878.33 403.81 874.55 410.05 870.70 416.25 C 869.06 418.90 867.46 421.57 865.88 424.25 C 863.98 427.42 862.01 430.51 859.94 433.56 C 857.98 436.45 856.21 439.36 854.56 442.44 C 852.23 446.74 849.51 450.68 846.65 454.64 C 845.00 457.00 845.00 457.00 843.64 459.30 C 841.40 462.99 838.89 466.48 836.38 470.00 C 832.67 475.22 828.99 480.46 825.38 485.75 C 821.58 491.25 817.58 496.54 813.47 501.81 C 811.08 504.88 808.76 508.00 806.44 511.12 C 802.87 515.89 799.17 520.51 795.38 525.09 C 792.74 528.32 790.18 531.59 787.62 534.88 C 782.70 541.18 777.59 547.30 772.39 553.37 C 770.48 555.61 768.57 557.87 766.67 560.13 C 759.94 568.11 753.07 575.93 746.07 583.68 C 744.42 585.53 742.82 587.39 741.25 589.31 C 738.96 592.05 736.55 594.51 734.00 597.00 C 732.50 598.50 731.00 600.00 729.50 601.50 C 727.21 603.79 724.91 606.09 722.61 608.38 C 720.72 610.28 718.83 612.18 716.95 614.09 C 705.23 625.92 705.23 625.92 699.00 631.00 C 698.49 631.42 697.99 631.84 697.47 632.27 C 695.74 633.70 694.00 635.10 692.25 636.50 C 691.69 636.96 691.14 637.42 690.57 637.89 C 688.95 639.16 688.95 639.16 686.00 641.00 C 683.82 640.62 683.82 640.62 682.00 640.00 C 682.85 630.40 683.70 621.05 686.29 611.73 C 687.01 608.97 687.50 606.25 687.94 603.44 C 690.27 588.63 693.54 573.75 697.56 559.31 C 698.49 555.99 699.29 552.70 699.94 549.31 C 703.04 533.08 707.77 517.03 712.37 501.18 C 713.11 498.63 713.83 496.08 714.56 493.52 C 717.63 482.83 720.85 472.22 724.44 461.68 C 726.78 454.75 728.92 447.77 730.96 440.75 C 732.43 435.73 734.10 430.86 736.00 426.00 C 736.27 425.29 736.55 424.58 736.83 423.85 C 737.69 421.61 738.56 419.37 739.44 417.12 C 739.74 416.34 740.05 415.55 740.37 414.74 C 741.98 410.58 743.63 406.44 745.31 402.31 C 746.37 399.70 747.22 397.22 748.00 394.50 C 750.29 386.47 753.90 378.98 757.42 371.44 C 760.07 365.68 762.52 359.83 765.00 354.00 C 767.65 347.81 770.59 341.80 773.62 335.78 C 775.21 332.57 776.60 329.29 778.00 326.00 C 779.25 323.46 780.53 320.94 781.81 318.41 C 782.78 316.45 783.65 314.45 784.50 312.44 C 786.06 308.87 787.89 305.58 789.80 302.20 C 791.43 299.21 792.70 296.14 794.00 293.00 C 794.98 290.99 795.98 288.99 797.00 287.00 C 797.15 286.70 797.15 286.70 797.90 285.16 C 800.44 280.01 803.17 275.00 806.00 270.00 C 806.31 269.46 806.31 269.46 807.85 266.70 C 811.47 260.28 815.21 253.97 819.22 247.78 C 821.20 244.70 823.10 241.57 825.00 238.44 C 827.90 233.70 830.93 229.11 834.16 224.59 C 835.89 222.15 837.59 219.70 839.29 217.23 C 846.46 206.81 853.86 196.70 862.00 187.00 C 862.45 186.45 862.91 185.91 863.38 185.35 C 882.54 162.35 919.36 121.85 952.76 139.52 Z M 1640.57 139.42 C 1648.58 144.63 1653.31 150.90 1656.00 160.00 C 1658.81 174.33 1658.21 189.19 1657.16 203.68 C 1657.02 205.70 1656.91 207.71 1656.81 209.73 C 1656.41 216.77 1655.22 223.49 1653.75 230.38 C 1653.09 233.56 1652.55 236.73 1652.06 239.94 C 1650.30 250.78 1647.32 261.39 1644.00 271.85 C 1643.32 273.99 1642.67 276.13 1642.04 278.27 C 1640.12 284.74 1637.89 290.90 1635.22 297.09 C 1634.03 299.93 1632.97 302.79 1631.94 305.69 C 1630.48 309.76 1628.85 313.70 1627.06 317.64 C 1624.05 324.33 1621.31 331.13 1618.75 338.00 C 1614.09 350.22 1608.56 362.15 1602.60 373.80 C 1600.05 378.90 1597.65 384.07 1595.25 389.24 C 1593.03 393.97 1590.65 398.50 1588.00 403.00 C 1585.08 408.05 1582.32 413.15 1579.62 418.31 C 1576.70 423.88 1573.68 429.34 1570.38 434.70 C 1568.91 437.16 1567.54 439.66 1566.19 442.19 C 1563.39 447.38 1560.37 452.41 1557.32 457.45 C 1555.10 461.13 1552.97 464.83 1550.94 468.62 C 1548.06 474.01 1544.87 479.17 1541.64 484.35 C 1540.00 487.00 1540.00 487.00 1539.00 489.00 C 1538.34 489.00 1537.68 489.00 1537.00 489.00 C 1536.75 489.87 1536.49 490.75 1536.23 491.64 C 1534.96 495.11 1533.41 497.67 1531.31 500.69 C 1528.66 504.57 1526.06 508.45 1523.56 512.44 C 1519.56 518.76 1515.30 524.88 1511.00 531.00 C 1510.51 531.70 1510.03 532.39 1509.52 533.11 C 1507.96 535.34 1506.38 537.58 1504.81 539.81 C 1504.33 540.51 1503.84 541.20 1503.34 541.91 C 1500.89 545.39 1498.40 548.81 1495.82 552.20 C 1493.68 555.04 1491.80 557.92 1490.00 561.00 C 1488.79 562.72 1487.56 564.43 1486.31 566.12 C 1482.07 571.91 1482.07 571.91 1480.09 574.67 C 1472.82 584.79 1465.17 594.60 1457.00 604.00 C 1455.98 605.32 1454.97 606.65 1454.00 608.00 C 1452.68 607.67 1451.36 607.34 1450.00 607.00 C 1448.49 601.12 1447.71 595.66 1447.74 589.59 C 1447.74 588.80 1447.73 588.01 1447.73 587.20 C 1447.72 584.61 1447.73 582.03 1447.73 579.44 C 1447.73 577.61 1447.73 575.78 1447.73 573.95 C 1447.73 570.11 1447.73 566.27 1447.74 562.43 C 1447.75 557.59 1447.74 552.75 1447.73 547.91 C 1447.69 528.33 1447.87 508.94 1449.77 489.43 C 1450.08 486.12 1450.28 482.81 1450.46 479.50 C 1451.83 455.51 1455.45 431.76 1460.51 408.27 C 1461.03 405.86 1461.53 403.44 1462.03 401.03 C 1467.02 376.94 1467.02 376.94 1470.32 366.31 C 1470.96 364.15 1471.47 362.01 1471.94 359.81 C 1474.55 347.65 1478.24 335.91 1482.26 324.16 C 1483.03 321.91 1483.78 319.66 1484.52 317.41 C 1486.19 312.38 1488.00 307.41 1489.82 302.43 C 1490.62 300.09 1491.36 297.72 1492.04 295.34 C 1492.82 292.63 1493.68 290.23 1494.88 287.69 C 1496.32 284.55 1497.64 281.41 1498.88 278.19 C 1500.81 273.29 1503.12 268.63 1505.54 263.96 C 1506.58 261.86 1507.54 259.72 1508.46 257.56 C 1511.22 251.17 1514.67 245.11 1518.00 239.00 C 1518.43 238.21 1518.86 237.43 1519.30 236.62 C 1520.63 234.18 1521.97 231.75 1523.31 229.31 C 1523.52 228.93 1523.52 228.93 1524.59 226.99 C 1526.54 223.46 1528.54 220.21 1531.00 217.00 C 1531.88 215.39 1532.73 213.76 1533.56 212.12 C 1539.97 200.23 1548.67 189.59 1557.00 179.00 C 1557.42 178.46 1557.85 177.92 1558.28 177.37 C 1559.51 175.80 1560.76 174.24 1562.00 172.69 C 1562.72 171.78 1563.44 170.88 1564.19 169.95 C 1564.79 169.31 1565.38 168.66 1566.00 168.00 C 1566.66 168.00 1567.32 168.00 1568.00 168.00 C 1568.66 166.68 1569.32 165.36 1570.00 164.00 C 1570.66 164.00 1571.32 164.00 1572.00 164.00 C 1572.25 163.41 1572.50 162.81 1572.76 162.20 C 1577.90 153.07 1594.34 143.94 1604.00 140.00 C 1604.43 139.82 1604.43 139.82 1606.59 138.88 C 1617.85 134.51 1629.64 133.92 1640.57 139.42 Z M 2776.00 673.00 C 2778.86 675.17 2781.46 677.47 2784.00 680.00 C 2784.57 680.56 2785.14 681.11 2785.72 681.69 C 2794.89 691.38 2800.66 703.54 2805.00 716.00 C 2805.56 717.29 2806.12 718.58 2806.69 719.88 C 2808.59 724.89 2808.96 730.31 2809.57 735.61 C 2810.00 739.00 2810.00 739.00 2810.52 740.86 C 2811.57 745.54 2811.18 750.48 2811.19 755.25 C 2811.20 756.36 2811.21 757.46 2811.22 758.61 C 2811.24 764.81 2810.74 770.06 2809.00 776.00 C 2808.68 777.91 2808.39 779.83 2808.12 781.75 C 2803.91 807.88 2787.55 834.03 2766.31 849.50 C 2745.54 863.59 2722.20 867.93 2697.38 864.25 C 2691.69 863.10 2686.34 861.24 2681.00 859.00 C 2680.31 858.71 2679.63 858.43 2678.92 858.13 C 2665.69 852.05 2653.37 841.52 2646.00 829.00 C 2645.74 828.59 2645.74 828.59 2644.45 826.49 C 2642.92 824.02 2641.46 821.52 2640.00 819.00 C 2639.63 818.40 2639.26 817.80 2638.88 817.19 C 2626.00 794.66 2626.81 756.56 2632.96 732.18 C 2637.28 718.27 2643.81 705.32 2653.00 694.00 C 2653.31 693.61 2653.31 693.61 2654.89 691.64 C 2662.87 682.20 2672.97 675.10 2683.00 668.00 C 2684.01 667.26 2685.02 666.51 2686.06 665.75 C 2713.38 649.47 2750.93 656.13 2776.00 673.00 Z M 2126.06 658.75 C 2126.92 658.91 2127.77 659.06 2128.66 659.23 C 2141.15 661.76 2152.09 668.16 2162.00 676.00 C 2162.99 676.72 2163.98 677.44 2165.00 678.19 C 2181.96 692.71 2189.30 717.64 2191.00 739.00 C 2191.89 755.72 2191.70 771.86 2187.00 788.00 C 2186.71 789.07 2186.42 790.15 2186.12 791.25 C 2182.71 802.70 2176.82 814.19 2170.00 824.00 C 2169.42 824.85 2168.83 825.69 2168.23 826.57 C 2163.64 833.07 2158.77 839.48 2153.00 845.00 C 2152.34 845.00 2151.68 845.00 2151.00 845.00 C 2151.00 845.66 2151.00 846.32 2151.00 847.00 C 2150.34 847.00 2149.68 847.00 2149.00 847.00 C 2148.87 847.30 2148.87 847.30 2148.21 848.82 C 2146.10 852.62 2142.52 854.58 2139.00 857.00 C 2138.17 857.59 2137.34 858.19 2136.48 858.80 C 2125.89 866.04 2114.86 869.42 2102.00 868.00 C 2098.86 867.27 2095.96 866.26 2093.00 865.00 C 2091.99 864.61 2090.98 864.22 2089.94 863.81 C 2089.30 863.54 2088.66 863.28 2088.00 863.00 C 2088.00 862.34 2088.00 861.68 2088.00 861.00 C 2087.42 860.79 2086.84 860.59 2086.25 860.38 C 2083.03 858.41 2081.26 856.52 2080.00 853.00 C 2079.03 846.29 2078.80 839.95 2082.50 834.06 C 2087.29 827.98 2094.09 820.76 2102.02 819.53 C 2111.31 819.44 2116.22 821.52 2123.60 826.89 C 2124.04 827.21 2124.04 827.21 2126.25 828.81 C 2127.04 829.42 2127.83 830.02 2128.64 830.64 C 2131.34 832.19 2132.94 832.28 2136.00 832.00 C 2136.27 831.27 2136.55 830.54 2136.83 829.78 C 2137.93 827.17 2139.24 824.93 2140.69 822.50 C 2144.24 815.44 2143.25 808.79 2141.30 801.34 C 2137.71 791.14 2131.04 782.82 2122.00 777.00 C 2121.03 776.30 2120.06 775.60 2119.06 774.88 C 2102.65 764.83 2082.16 764.94 2063.75 768.89 C 2053.66 771.87 2044.92 777.09 2037.00 784.00 C 2036.20 784.67 2035.40 785.33 2034.58 786.02 C 2025.18 794.11 2017.86 803.82 2010.38 813.62 C 2009.82 814.35 2009.27 815.08 2008.69 815.83 C 2006.30 818.96 2003.92 822.10 2001.57 825.27 C 2000.89 826.17 2000.20 827.07 1999.50 828.00 C 1998.93 828.76 1998.37 829.53 1997.78 830.31 C 1995.54 832.44 1994.07 832.84 1991.00 833.00 C 1987.32 830.55 1986.13 828.15 1985.00 824.00 C 1984.55 820.22 1984.53 816.49 1984.56 812.69 C 1984.57 811.60 1984.57 810.51 1984.58 809.39 C 1985.09 782.10 1992.05 755.84 2003.00 731.00 C 2003.49 729.84 2003.98 728.69 2004.49 727.50 C 2016.83 698.88 2039.73 675.61 2068.45 662.92 C 2073.51 661.07 2078.74 660.27 2084.05 659.47 C 2086.63 659.06 2089.09 658.50 2091.62 657.88 C 2103.08 655.62 2114.68 656.64 2126.06 658.75 Z" fill="currentColor" fill-rule="evenodd"/>
</svg>
